<svg width="17" height="19" viewBox="0 0 17 19" fill="none" xmlns="http://www.w3.org/2000/svg">
<path d="M0.709908 18.9304C0.617162 18.9304 0.525561 18.9087 0.439685 18.8733C0.354954 18.8379 0.277093 18.7888 0.212972 18.7248C0.0778609 18.5911 0 18.4061 0 18.2222C0 18.0383 0.0778609 17.8544 0.212972 17.7196C0.277093 17.6556 0.354954 17.6065 0.439685 17.5711C0.701893 17.458 1.01448 17.5208 1.21257 17.7196C1.34768 17.8544 1.42554 18.0383 1.42554 18.2222C1.42554 18.4061 1.34768 18.5832 1.21257 18.7248C1.07746 18.8516 0.901125 18.9304 0.708763 18.9304H0.709908Z" fill="#797979"/>
<path d="M6.13407 10.0455C6.40315 10.1735 6.68597 10.2843 7.00772 10.3825C7.54702 10.5196 8.10235 10.5915 8.71493 10.5915C8.75844 10.5915 8.80309 10.5915 8.84775 10.5904C9.44087 10.5264 10.0225 10.3905 10.6099 10.1723C11.763 9.68226 12.7064 8.79469 13.2709 7.66495C13.3992 7.3965 13.5091 7.1155 13.6076 6.79451C13.7553 6.21764 13.8263 5.62364 13.8148 4.95882C13.7518 4.36825 13.6156 3.78795 13.3969 3.20081C12.9057 2.04936 12.016 1.1081 10.8813 0.544943C10.6111 0.417004 10.3294 0.307343 10.0088 0.209104C9.43056 0.0606045 8.82943 -0.00907623 8.1699 6.22267e-05C7.57679 0.0640314 6.99512 0.199966 6.43979 0.405581C6.41574 0.41472 6.39284 0.423858 6.36994 0.436424C5.8398 0.699154 5.34172 1.02471 4.88944 1.39939C4.86769 1.41767 4.84593 1.43823 4.82647 1.45879C4.42113 1.88944 4.06618 2.36807 3.74672 2.9278C3.61848 3.19738 3.5097 3.47725 3.41123 3.79709C3.26352 4.3751 3.19139 4.97024 3.20284 5.63278C3.26581 6.22221 3.40322 6.8025 3.62191 7.38965C4.11312 8.54224 5.0028 9.48236 6.13522 10.0444L6.13407 10.0455ZM4.7738 4.18319C4.8425 3.96273 4.92837 3.7434 5.00165 3.58462C5.23409 3.18025 5.51347 2.80328 5.83064 2.46059C6.17987 2.17387 6.56231 1.92485 6.96764 1.72038C7.40274 1.56274 7.85617 1.45765 8.25349 1.41195C8.72409 1.40853 9.20041 1.46222 9.62407 1.56959C9.84506 1.63813 10.0638 1.72266 10.2618 1.81633C11.0828 2.22413 11.7332 2.9118 12.0801 3.72284C12.2461 4.16834 12.3549 4.6344 12.4019 5.04221C12.4076 5.51512 12.3515 5.9869 12.2439 6.40955C12.1752 6.6323 12.0893 6.84934 11.9954 7.04581C11.5866 7.86485 10.8973 8.51368 10.0855 8.8598C9.6401 9.02429 9.17293 9.13395 8.76416 9.18079C8.29013 9.17508 7.81724 9.13053 7.39358 9.02315C7.17145 8.95461 6.9539 8.86894 6.75581 8.77527C5.93598 8.36861 5.28562 7.68094 4.93868 6.8699C4.77265 6.42326 4.66273 5.9572 4.61693 5.55168C4.6112 5.0799 4.66731 4.60813 4.77494 4.18433L4.7738 4.18319Z" fill="#797979"/>
<path d="M10.3465 18.975C10.3774 18.8311 10.3946 17.8887 10.3717 17.562L1.45659 17.5505C1.55391 16.6344 1.95009 15.7617 2.62335 15.0889C4.46453 13.1081 8.6152 12.4364 11.8304 13.5616C11.8396 13.5399 12.6789 12.3679 12.6399 12.353C8.83848 10.8646 3.87714 11.6608 1.602 14.1099C0.531415 15.1768 -0.0513963 16.6584 0.0035643 18.1685C0.0150144 18.4781 0.247452 18.7203 0.51882 18.8082C0.637901 18.8996 0.779883 18.9636 0.94133 18.9636L10.3476 18.9761C10.3476 18.9761 10.3476 18.9761 10.3476 18.975H10.3465Z" fill="#797979"/>
<path d="M17.0001 15.4247H14.9207V13.2783H13.5341V15.4247H11.4536V16.8549H13.5341V19.0001H14.9207V16.8549H17.0001" fill="#797979"/>
</svg>
