<svg width="30" height="30" viewBox="0 0 30 30" fill="none" xmlns="http://www.w3.org/2000/svg">
<path d="M15.7219 19.6907C15.5417 19.4923 15.2963 19.38 15.0299 19.3748C14.7558 19.38 14.492 19.4766 14.291 19.6777L11.3926 22.5761C11.1941 22.7563 11.0818 23.0017 11.0766 23.268C11.0714 23.5422 11.1784 23.806 11.3664 23.994C11.5466 24.1924 11.7921 24.3047 12.0584 24.3099C12.3352 24.3099 12.5963 24.2081 12.7974 24.007L13.9855 22.8189V28.0779C13.9855 28.6132 14.4241 29.2137 15.0117 29.2137C15.5992 29.2137 16.0013 28.6158 16.0013 28.0779V22.8189L17.1894 24.007L17.2129 24.0279C17.4166 24.2029 17.6568 24.2942 17.9101 24.2942C18.1921 24.2942 18.4428 24.195 18.6308 24.007L18.6412 23.9966C19.0172 23.5918 19.0068 22.9573 18.6229 22.5891L15.7245 19.6907H15.7219Z" fill="#BBBBBB"/>
<path d="M25.4147 8.05031C25.4043 5.89607 24.5661 3.88023 23.049 2.36313C21.5084 0.838193 19.4743 0 17.3253 0C15.6202 0 14.0038 0.511794 12.6538 1.48055C11.6642 2.1934 10.873 3.07076 10.2933 4.09435C9.65619 3.76273 8.94856 3.58778 8.22004 3.58778C5.9483 3.58778 4.03429 5.28506 3.74445 7.49935C2.78875 7.90147 1.91923 8.56733 1.27426 9.39507C0.441292 10.4631 0 11.7504 0 13.116C0 14.7376 0.631909 16.2625 1.78345 17.4088C2.92976 18.5525 4.44686 19.1818 6.06058 19.1818H10.9122C11.4762 19.1818 11.9201 18.7405 11.9201 18.1739C11.9201 17.6073 11.4788 17.166 10.9122 17.166H6.05014C3.82279 17.166 2.01062 15.3538 2.01062 13.1265C2.01062 12.2256 2.30046 11.3691 2.85142 10.6511C3.37627 9.95909 4.13091 9.44991 4.97432 9.21751C5.44173 9.08956 5.74724 8.67961 5.72374 8.2122V8.09992C5.72374 6.72905 6.84133 5.61145 8.2122 5.61145C8.87284 5.61145 9.49952 5.87257 9.97215 6.3452C10.2124 6.58543 10.5492 6.68727 10.9017 6.6246C11.2229 6.56193 11.5101 6.31648 11.6355 5.99791C12.0846 4.8281 12.8471 3.83845 13.8341 3.13343C14.8786 2.39708 16.0902 2.00801 17.3409 2.00801C18.9651 2.00801 20.4874 2.63731 21.6259 3.7784C22.7696 4.92471 23.3963 6.44704 23.3963 8.06859C23.3963 8.28271 23.3806 8.52032 23.3441 8.82322C23.3127 9.10001 23.4041 9.38463 23.5895 9.60136L23.6104 9.62486C23.8193 9.83375 24.0883 9.94865 24.365 9.94865H24.3964C26.3731 9.96431 27.9842 11.5806 27.9842 13.5495C27.9842 15.5183 26.3678 17.1503 24.3833 17.1503H19.0852C18.5212 17.1503 18.0773 17.5916 18.0773 18.1582C18.0773 18.7249 18.5186 19.1662 19.0852 19.1662H24.3833C27.4802 19.1662 30 16.6464 30 13.5495C30 10.813 28.052 8.50988 25.4095 8.04509L25.4147 8.05031Z" fill="#BBBBBB"/>
<path d="M12.4031 9.35596H10.4265L8.58557 14.8943H10.1575L10.4891 13.8054H12.3379L12.6695 14.8943H14.2414L12.4005 9.35596H12.4031ZM10.826 12.7061L11.3952 10.8443H11.4422L12.0088 12.7061H10.8286H10.826Z" fill="#BBBBBB"/>
<path d="M16.2443 13.231H17.0981C17.5185 13.231 17.8867 13.1527 18.2053 12.9934C18.5238 12.8341 18.7667 12.6122 18.939 12.3223C19.1113 12.0325 19.1975 11.693 19.1975 11.304C19.1975 10.9149 19.114 10.5755 18.9442 10.2804C18.7745 9.98533 18.5343 9.75815 18.2262 9.59887C17.918 9.43959 17.5577 9.35864 17.1503 9.35864H14.795V14.897H16.2495V13.2337L16.2443 13.231ZM16.2443 10.5232H16.8135C16.9937 10.5232 17.1503 10.5546 17.2809 10.6146C17.4115 10.6747 17.5107 10.7661 17.5786 10.8836C17.6465 11.0011 17.6804 11.1421 17.6804 11.304C17.6804 11.4659 17.6465 11.6043 17.5786 11.7218C17.5107 11.8393 17.4115 11.9307 17.2809 11.9959C17.1503 12.0612 16.9963 12.0926 16.8135 12.0926H16.2443V10.5232Z" fill="#BBBBBB"/>
<path d="M21.2237 9.35596H19.7693V14.8943H21.2237V9.35596Z" fill="#BBBBBB"/>
</svg>
<svg width="30" height="30" viewBox="0 0 30 30" fill="none" xmlns="http://www.w3.org/2000/svg">
<path d="M15.7219 19.6907C15.5417 19.4923 15.2963 19.38 15.0299 19.3748C14.7558 19.38 14.492 19.4766 14.291 19.6777L11.3926 22.5761C11.1941 22.7563 11.0818 23.0017 11.0766 23.268C11.0714 23.5422 11.1784 23.806 11.3664 23.994C11.5466 24.1924 11.7921 24.3047 12.0584 24.3099C12.3352 24.3099 12.5963 24.2081 12.7974 24.007L13.9855 22.8189V28.0779C13.9855 28.6132 14.4241 29.2137 15.0117 29.2137C15.5992 29.2137 16.0013 28.6158 16.0013 28.0779V22.8189L17.1894 24.007L17.2129 24.0279C17.4166 24.2029 17.6568 24.2942 17.9101 24.2942C18.1921 24.2942 18.4428 24.195 18.6308 24.007L18.6412 23.9966C19.0172 23.5918 19.0068 22.9573 18.6229 22.5891L15.7245 19.6907H15.7219Z" fill="#BBBBBB"/>
<path d="M25.4147 8.05031C25.4043 5.89607 24.5661 3.88023 23.049 2.36313C21.5084 0.838193 19.4743 0 17.3253 0C15.6202 0 14.0038 0.511794 12.6538 1.48055C11.6642 2.1934 10.873 3.07076 10.2933 4.09435C9.65619 3.76273 8.94856 3.58778 8.22004 3.58778C5.9483 3.58778 4.03429 5.28506 3.74445 7.49935C2.78875 7.90147 1.91923 8.56733 1.27426 9.39507C0.441292 10.4631 0 11.7504 0 13.116C0 14.7376 0.631909 16.2625 1.78345 17.4088C2.92976 18.5525 4.44686 19.1818 6.06058 19.1818H10.9122C11.4762 19.1818 11.9201 18.7405 11.9201 18.1739C11.9201 17.6073 11.4788 17.166 10.9122 17.166H6.05014C3.82279 17.166 2.01062 15.3538 2.01062 13.1265C2.01062 12.2256 2.30046 11.3691 2.85142 10.6511C3.37627 9.95909 4.13091 9.44991 4.97432 9.21751C5.44173 9.08956 5.74724 8.67961 5.72374 8.2122V8.09992C5.72374 6.72905 6.84133 5.61145 8.2122 5.61145C8.87284 5.61145 9.49952 5.87257 9.97215 6.3452C10.2124 6.58543 10.5492 6.68727 10.9017 6.6246C11.2229 6.56193 11.5101 6.31648 11.6355 5.99791C12.0846 4.8281 12.8471 3.83845 13.8341 3.13343C14.8786 2.39708 16.0902 2.00801 17.3409 2.00801C18.9651 2.00801 20.4874 2.63731 21.6259 3.7784C22.7696 4.92471 23.3963 6.44704 23.3963 8.06859C23.3963 8.28271 23.3806 8.52032 23.3441 8.82322C23.3127 9.10001 23.4041 9.38463 23.5895 9.60136L23.6104 9.62486C23.8193 9.83375 24.0883 9.94865 24.365 9.94865H24.3964C26.3731 9.96431 27.9842 11.5806 27.9842 13.5495C27.9842 15.5183 26.3678 17.1503 24.3833 17.1503H19.0852C18.5212 17.1503 18.0773 17.5916 18.0773 18.1582C18.0773 18.7249 18.5186 19.1662 19.0852 19.1662H24.3833C27.4802 19.1662 30 16.6464 30 13.5495C30 10.813 28.052 8.50988 25.4095 8.04509L25.4147 8.05031Z" fill="#BBBBBB"/>
<path d="M12.4031 9.35596H10.4265L8.58557 14.8943H10.1575L10.4891 13.8054H12.3379L12.6695 14.8943H14.2414L12.4005 9.35596H12.4031ZM10.826 12.7061L11.3952 10.8443H11.4422L12.0088 12.7061H10.8286H10.826Z" fill="#BBBBBB"/>
<path d="M16.2443 13.231H17.0981C17.5185 13.231 17.8867 13.1527 18.2053 12.9934C18.5238 12.8341 18.7667 12.6122 18.939 12.3223C19.1113 12.0325 19.1975 11.693 19.1975 11.304C19.1975 10.9149 19.114 10.5755 18.9442 10.2804C18.7745 9.98533 18.5343 9.75815 18.2262 9.59887C17.918 9.43959 17.5577 9.35864 17.1503 9.35864H14.795V14.897H16.2495V13.2337L16.2443 13.231ZM16.2443 10.5232H16.8135C16.9937 10.5232 17.1503 10.5546 17.2809 10.6146C17.4115 10.6747 17.5107 10.7661 17.5786 10.8836C17.6465 11.0011 17.6804 11.1421 17.6804 11.304C17.6804 11.4659 17.6465 11.6043 17.5786 11.7218C17.5107 11.8393 17.4115 11.9307 17.2809 11.9959C17.1503 12.0612 16.9963 12.0926 16.8135 12.0926H16.2443V10.5232Z" fill="#BBBBBB"/>
<path d="M21.2237 9.35596H19.7693V14.8943H21.2237V9.35596Z" fill="#BBBBBB"/>
</svg>
