<svg width="177" height="143" viewBox="0 0 177 143" fill="none" xmlns="http://www.w3.org/2000/svg">
<path d="M5.27601 142.088C4.66707 142.088 4.05811 141.948 3.49601 141.713C2.9339 141.479 2.41864 141.151 1.99706 140.729C1.10706 139.839 0.591797 138.621 0.591797 137.402C0.591797 136.184 1.10706 134.965 1.99706 134.075C2.41864 133.653 2.9339 133.325 3.49601 133.091C5.22917 132.341 7.29022 132.763 8.6018 134.075C9.49181 134.965 10.0071 136.184 10.0071 137.402C10.0071 138.621 9.49181 139.792 8.6018 140.729C7.7118 141.573 6.54075 142.088 5.27601 142.088V142.088Z" fill="#bbbbbb"/>
<path d="M41.1105 83.2297C42.8905 84.0732 44.7642 84.823 46.8721 85.479C50.4321 86.3694 54.0858 86.8381 58.161 86.8381C58.4421 86.8381 58.7231 86.8381 59.051 86.8381C62.9858 86.4163 66.8268 85.526 70.7147 84.0732C78.35 80.8397 84.58 74.9351 88.2806 67.4372C89.1237 65.6564 89.8732 63.7819 90.529 61.6731C91.5127 57.8304 91.9811 53.894 91.8874 49.5359C91.4658 45.6463 90.5758 41.7568 89.1237 37.8673C85.8916 30.2288 79.9895 23.9961 72.4947 20.294C70.7147 19.4505 68.841 18.7007 66.7331 18.0915C62.8921 17.1074 58.9574 16.6387 54.5542 16.7324C50.6194 17.1542 46.7784 18.0446 43.1247 19.4036C42.9842 19.4505 42.7968 19.5442 42.6563 19.591C39.1431 21.3249 35.8642 23.4806 32.8663 25.9643C32.7257 26.1049 32.5852 26.1986 32.4447 26.3392C29.7747 29.1978 27.4326 32.3844 25.3247 36.0865C24.4815 37.8672 23.7789 39.7417 23.1231 41.8505C22.1394 45.6932 21.671 49.6296 21.7647 54.0347C22.1862 57.9242 23.0762 61.7669 24.5284 65.6564C27.7605 73.2949 33.6626 79.5276 41.1573 83.2297H41.1105Z" fill="#bbbbbb"/>
<path d="M84.1111 98.5066C59.0037 88.6656 26.2142 93.9142 11.1778 110.128C4.10467 117.205 0.263613 127.046 0.638351 137.027C0.732035 139.089 2.231 140.682 4.05784 141.245C4.85416 141.854 5.791 142.276 6.86837 142.276L107.298 142.416C108.797 142.416 110.108 141.667 110.952 140.542C112.123 139.698 112.919 138.386 112.919 136.84C112.919 119.641 102.426 105.63 84.1579 98.4597L84.1111 98.5066Z" fill="#bbbbbb"/>
<path d="M176.999 121.375C176.999 106.942 169.879 94.6168 156.904 86.744C137.98 75.2628 109.547 74.5599 89.2172 85.1507C87.484 86.0411 86.5472 87.9155 86.7346 89.79C86.8751 91.6645 88.093 93.3515 90.0135 93.9607C103.738 98.1783 114.231 108.957 118.072 122.781C118.634 124.843 120.508 126.202 122.569 126.202C122.569 126.202 122.569 126.202 122.616 126.202C122.803 126.202 122.99 126.296 123.178 126.296H171.706V126.342C172.549 126.342 173.299 126.061 173.955 125.686C175.688 124.983 176.953 123.343 176.953 121.328L176.999 121.375Z" fill="#bbbbbb"/>
<path d="M90.5757 26.3389C98.9604 34.3055 102.052 46.1147 98.6326 57.1273C98.3983 57.8302 98.3984 58.4863 98.492 59.1424C98.3984 60.5482 98.8668 62.0009 99.991 63.0319C102.802 65.4687 106.034 67.3901 109.875 68.8428C113.669 69.9675 117.604 70.6235 121.585 70.7641C121.632 70.7641 121.726 70.7641 121.773 70.7641C121.866 70.7641 121.96 70.7641 122.1 70.7641C125.988 70.4829 129.876 69.78 133.624 68.5616C133.811 68.5147 133.952 68.421 134.092 68.3742C137.652 66.7809 141.025 64.7658 144.397 62.1415C145.849 60.8294 147.255 59.3766 148.66 57.6427C151.049 54.4561 152.969 50.9884 154.562 46.9114C155.686 43.1624 156.295 39.226 156.483 35.1021C156.389 26.8075 153.344 18.7941 147.864 12.4677C146.552 11.015 145.1 9.6092 143.367 8.20334C140.182 5.86024 136.715 3.89201 132.921 2.39242C121.07 -1.7783 107.814 0.752238 98.0704 9.1874C95.1194 12.0929 92.5899 15.42 90.5757 18.9816C90.3883 19.3096 90.2478 19.6845 90.1541 20.0594C88.702 21.9339 88.8425 24.6051 90.5757 26.2921V26.3389Z" fill="#bbbbbb"/>
</svg>
