<svg width="30" height="24" viewBox="0 0 30 24" fill="none" xmlns="http://www.w3.org/2000/svg">
<path fill-rule="evenodd" clip-rule="evenodd" d="M15.717 2.94676H25.5013C27.9865 2.94676 30 4.9245 30 7.36557V19.1526C30 21.5937 27.9865 23.5714 25.5013 23.5714H4.49865C2.01348 23.5714 0 21.5937 0 19.1526V4.41881C0 1.97774 2.01348 0 4.49865 0H12.5741C13.027 0 13.4555 0.201214 13.7412 0.548047L15.7143 2.94676H15.717ZM12.0404 2.1366H4.30458C3.42049 2.1366 2.16981 3.62983 2.16981 4.51942V19.3459C2.16981 20.2355 3.42049 21.4639 4.30458 21.4639H25.9084C26.7925 21.4639 27.7763 19.9707 27.7763 19.0811V7.69652C27.7763 6.80693 26.7925 5.3137 25.9084 5.3137H15.5067C15.0243 5.3137 14.4771 4.89803 14.1725 4.51942L12.0377 2.1366H12.0404Z" fill="#BBBBBB"/>
</svg>
