<svg width="29" height="29" viewBox="0 0 29 29" fill="none" xmlns="http://www.w3.org/2000/svg">
<path fill-rule="evenodd" clip-rule="evenodd" d="M22.4389 0.78733C23.4887 -0.262443 25.0633 -0.262443 26.1131 0.78733L28.2127 2.88688C29.2624 3.93665 29.2624 5.51131 28.2127 6.56109L19.6833 15.0905C19.1584 15.6154 18.5023 15.8778 17.8462 15.8778H14.4344C13.6471 15.8778 13.1222 15.3529 13.1222 14.5656V11.1538C13.1222 10.4977 13.3846 9.84163 13.9095 9.31674L22.4389 0.78733ZM26.3756 4.72398L24.276 2.62443L15.7466 11.1538V13.2534H17.8462L26.3756 4.72398V4.72398ZM3.93665 4.06787C3.14932 4.06787 2.62443 4.59276 2.62443 5.38009V25.0633C2.62443 25.8507 3.14932 26.3756 3.93665 26.3756H23.6199C24.4072 26.3756 24.9321 25.8507 24.9321 25.0633V14.5656C24.9321 13.7783 25.457 13.2534 26.2443 13.2534C27.0317 13.2534 27.5566 13.7783 27.5566 14.5656V25.0633C27.5566 27.2941 25.8507 29 23.6199 29H3.93665C1.70588 29 0 27.2941 0 25.0633V5.38009C0 3.14932 1.70588 1.44344 3.93665 1.44344H14.4344C15.2217 1.44344 15.7466 1.96833 15.7466 2.75566C15.7466 3.54299 15.2217 4.06787 14.4344 4.06787H3.93665Z" fill="#BBBBBB"/>
</svg>
