<svg width="27" height="30" viewBox="0 0 27 30" fill="none" xmlns="http://www.w3.org/2000/svg">
<path fill-rule="evenodd" clip-rule="evenodd" d="M27 4.6426C27 3.41035 26.5141 2.23105 25.6475 1.35981C24.7809 0.488568 23.6056 0 22.3823 0C21.1591 0 19.9837 0.488568 19.1171 1.35981C18.2506 2.23105 17.7646 3.41276 17.7646 4.6426C17.7646 5.87244 18.2506 7.05415 19.1171 7.92539C19.7275 8.53911 20.4912 8.95788 21.3171 9.15523V10.3562C21.3171 11.2082 20.9795 12.0265 20.3811 12.6282C19.7826 13.2298 18.9687 13.5692 18.1213 13.5692H8.17014C7.28203 13.5692 6.42025 13.8291 5.68295 14.3032V9.28279C5.68295 9.23947 5.67577 9.19856 5.67098 9.15523C6.50164 8.96029 7.27006 8.53911 7.88288 7.92298C8.74945 7.05174 9.23539 5.87004 9.23539 4.64019C9.23539 3.41035 8.74945 2.22864 7.88288 1.3574C7.01871 0.488568 5.84334 0 4.6177 0C3.39206 0 2.21908 0.488568 1.35251 1.35981C0.485947 2.23105 0 3.41276 0 4.6426C0 5.87244 0.485947 7.05415 1.35251 7.92539C1.96533 8.54152 2.73375 8.9627 3.56441 9.15764C3.55962 9.20096 3.55244 9.24188 3.55244 9.2852V20.7148C3.55244 20.7581 3.55962 20.799 3.56441 20.8424C2.73375 21.0373 1.96533 21.4585 1.35251 22.0746C0.485947 22.9458 0 24.1276 0 25.3574C0 26.5872 0.485947 27.769 1.35251 28.6402C2.21908 29.5114 3.39206 30 4.6177 30C5.84334 30 7.01631 29.5114 7.88288 28.6402C8.74945 27.769 9.23539 26.5897 9.23539 25.3574C9.23539 24.1252 8.74945 22.9458 7.88288 22.0746C7.27006 21.4585 6.50164 21.0373 5.67098 20.8424C5.67577 20.799 5.68295 20.7581 5.68295 20.7148V18.2142C5.68295 17.5499 5.94388 16.9146 6.41068 16.4452C6.87747 15.9759 7.50944 15.7136 8.17014 15.7136H18.1165C19.5289 15.7136 20.8862 15.148 21.8844 14.1444C22.8826 13.1408 23.4452 11.7762 23.4452 10.3562V9.15523C24.271 8.95788 25.0347 8.53911 25.6451 7.92539C26.5117 7.05415 26.9976 5.87244 26.9976 4.6426H27ZM7.10489 25.3598C7.10489 26.0241 6.84396 26.6594 6.37716 27.1288C5.91036 27.5981 5.27839 27.8604 4.6177 27.8604C3.957 27.8604 3.32503 27.5981 2.85823 27.1288C2.39144 26.6594 2.13051 26.0241 2.13051 25.3598C2.13051 24.6955 2.39144 24.0602 2.85823 23.5909C3.32503 23.1215 3.957 22.8592 4.6177 22.8592C5.27839 22.8592 5.91036 23.1215 6.37716 23.5909C6.84396 24.0602 7.10489 24.6955 7.10489 25.3598ZM2.32201 5.60048C2.19754 5.29723 2.1329 4.97232 2.1329 4.6426C2.1329 4.31288 2.19754 3.98797 2.32201 3.68472C2.44649 3.38147 2.63082 3.10469 2.86063 2.87365C3.09283 2.6426 3.36572 2.45728 3.66735 2.33213C3.96897 2.20698 4.29214 2.142 4.62009 2.142C5.28079 2.142 5.91276 2.40433 6.37955 2.87365C6.84635 3.34296 7.10728 3.97834 7.10728 4.6426C7.10728 5.30686 6.84635 5.94224 6.37955 6.41155C5.91276 6.88087 5.28079 7.1432 4.62009 7.1432C4.29453 7.1432 3.97136 7.07822 3.66735 6.95307C3.36572 6.82792 3.09043 6.6426 2.86063 6.41155C2.63082 6.18051 2.44649 5.90373 2.32201 5.60048ZM24.1418 6.41155C23.675 6.88087 23.043 7.1432 22.3823 7.1432C22.0567 7.1432 21.7312 7.07822 21.4296 6.95307C21.1279 6.82792 20.8526 6.6426 20.6228 6.41155C20.3906 6.18051 20.2087 5.90373 20.0842 5.60048C19.9597 5.29723 19.8951 4.97232 19.8951 4.6426C19.8951 4.31288 19.9597 3.98797 20.0842 3.68472C20.2087 3.38147 20.393 3.10469 20.6228 2.87365C20.8526 2.6426 21.1279 2.45728 21.4296 2.33213C21.7312 2.20698 22.0543 2.142 22.3823 2.142C23.043 2.142 23.675 2.40433 24.1418 2.87365C24.6086 3.34296 24.8695 3.97834 24.8695 4.6426C24.8695 5.30686 24.6086 5.94224 24.1418 6.41155Z" fill="#BBBBBB"/>
</svg>
