<svg width="31" height="28" viewBox="0 0 31 28" fill="none" xmlns="http://www.w3.org/2000/svg">
<path fill-rule="evenodd" clip-rule="evenodd" d="M27.2388 0H4.74117C2.67188 0 0.98999 1.77 0.98999 3.97V23.81C0.98999 26 2.66243 27.78 4.74117 27.78H27.2388C29.3081 27.78 30.99 26.01 30.99 23.81V3.97C30.99 1.77 29.3081 0 27.2388 0ZM29.1097 23.81C29.1097 24.91 28.2687 25.79 27.2388 25.79H4.74117C3.7018 25.79 2.8703 24.9 2.8703 23.81V14.88H29.1191V23.81H29.1097ZM29.1097 12.9H2.86086V3.97C2.86086 2.87 3.7018 1.99 4.73172 1.99H27.2294C28.2687 1.99 29.1002 2.88 29.1002 3.97V12.9H29.1097Z" fill="#BBBBBB"/>
</svg>
