<svg width="14" height="16" viewBox="0 0 14 16" fill="none" xmlns="http://www.w3.org/2000/svg">
<path d="M14 12.1905H11.7895V9.90476H10.3158V12.1905H8.10526V13.7143H10.3158V16H11.7895V13.7143H14M1.47368 0C0.655789 0 0 0.685714 0 1.52381V13.7143C0 14.56 0.655789 15.2381 1.47368 15.2381H7.22842C6.96316 14.7657 6.77895 14.2476 6.69053 13.7143H1.47368V1.52381H6.63158V5.33333H10.3158V8.44191C10.5589 8.40381 10.8095 8.38095 11.0526 8.38095C11.3032 8.38095 11.5463 8.40381 11.7895 8.44191V4.57143L7.36842 0M2.94737 7.61905V9.14286H8.8421V7.61905M2.94737 10.6667V12.1905H6.63158V10.6667H2.94737Z" fill="#bbbbbb"/>
</svg>
