<svg width="18" height="16" viewBox="0 0 18 16" fill="none" xmlns="http://www.w3.org/2000/svg">
<path d="M9.42857 12.6316C9.42857 12.9179 9.46286 13.1958 9.50571 13.4737H1.71429C0.771429 13.4737 0 12.7242 0 11.7895V1.68421C0 0.749474 0.762857 0 1.71429 0H6.85714L8.57143 1.68421H15.4286C16.3714 1.68421 17.1429 2.43368 17.1429 3.36842V8.26105C16.62 7.96632 16.0457 7.76421 15.4286 7.65474V3.36842H1.71429V11.7895H9.50571C9.46286 12.0674 9.42857 12.3453 9.42857 12.6316ZM15.4286 11.7895V9.26316H13.7143V11.7895H11.1429V13.4737H13.7143V16H15.4286V13.4737H18V11.7895H15.4286Z" fill="#bbbbbb"/>
</svg>
