<svg width="30" height="30" viewBox="0 0 30 30" fill="none" xmlns="http://www.w3.org/2000/svg">
<path d="M11.6801 30C11.5886 30 11.4972 30 11.4172 29.9657C9.8399 29.5884 8.35406 28.9595 6.97107 28.1135C6.4796 27.8162 6.29672 27.1988 6.52532 26.6728C6.79963 26.0554 6.79963 25.3351 6.52532 24.7177C5.98812 23.5057 4.55942 22.9455 3.33645 23.4943C2.81069 23.7229 2.19349 23.54 1.89632 23.0484C1.05053 21.6649 0.4219 20.1785 0.0447223 18.6007C-0.0924331 18.0404 0.216167 17.4688 0.741929 17.263C1.38199 17.0114 1.88489 16.5083 2.12491 15.8681C2.60496 14.6218 1.97633 13.2269 0.730499 12.7467C0.193307 12.5409 -0.103863 11.9692 0.0332927 11.4089C0.41047 9.83111 1.02767 8.34474 1.87346 6.96127C2.17063 6.46963 2.79926 6.27525 3.32502 6.51536C3.63362 6.65256 3.93079 6.74403 4.29654 6.72116C4.63943 6.72116 4.97089 6.65256 5.27949 6.51536C5.87383 6.25239 6.31958 5.77218 6.54818 5.17763C6.77677 4.58308 6.76534 3.91993 6.50246 3.32538C6.27386 2.79944 6.45674 2.18202 6.94821 1.88475C8.3312 1.03866 9.82848 0.409811 11.3943 0.0325015C11.9544 -0.104702 12.5259 0.204006 12.7316 0.741385C12.9716 1.38167 13.486 1.88475 14.126 2.13629C14.7318 2.36496 15.3833 2.35352 15.9776 2.09055C16.572 1.82758 17.0177 1.34737 17.2463 0.752819C17.452 0.215439 18.0235 -0.0818347 18.5836 0.0439351C20.1609 0.421244 21.6467 1.05009 23.0297 1.89618C23.5212 2.19345 23.704 2.81087 23.4754 3.33682C23.3383 3.64552 23.2697 3.9771 23.2697 4.32011C23.2697 4.96039 23.5212 5.56637 23.9783 6.02371C24.4355 6.48106 25.0413 6.7326 25.6814 6.7326C26.0242 6.7326 26.3557 6.664 26.6757 6.52679C27.2015 6.28669 27.8073 6.48106 28.1159 6.9727C28.9617 8.35617 29.5903 9.85397 29.9675 11.4204C30.1046 11.9806 29.796 12.5523 29.2703 12.7581C28.3445 13.1126 27.7158 14.0158 27.7158 15.0105C27.7158 16.0167 28.3216 16.9085 29.2588 17.2744C29.7846 17.4802 30.0818 18.0519 29.956 18.6007C29.5789 20.1785 28.9617 21.6649 28.1044 23.0484C27.8073 23.54 27.1901 23.7229 26.6757 23.4943C26.0585 23.2199 25.3385 23.2199 24.7213 23.4943C24.1269 23.7572 23.6812 24.226 23.4412 24.832C23.2011 25.438 23.224 26.0897 23.4869 26.6843C23.7155 27.2102 23.5212 27.8162 23.0411 28.1135C21.6581 28.9595 20.1609 29.5884 18.595 29.9657C18.0349 30.1029 17.4635 29.7942 17.2577 29.2682C17.0177 28.6394 16.5148 28.1249 15.8747 27.8848C14.6289 27.4046 13.2345 28.022 12.7545 29.2682C12.583 29.7142 12.1487 30 11.6915 30H11.6801ZM14.9947 25.438C15.5547 25.438 16.1262 25.5409 16.6748 25.7467C17.5778 26.0897 18.3435 26.7186 18.8807 27.5075C19.6351 27.2674 20.3552 26.9701 21.0524 26.6042C20.8809 25.7467 20.9609 24.8434 21.281 24.0088C21.7381 22.8311 22.6182 21.9164 23.7726 21.4019C24.6527 21.0132 25.6356 20.9103 26.5614 21.0932C26.9272 20.3958 27.2358 19.664 27.4644 18.9094C26.1843 18.0404 25.3956 16.5998 25.3956 14.9991C25.3956 13.4213 26.2071 11.9578 27.4758 11.1002C27.2358 10.3456 26.9386 9.6253 26.5729 8.92785C26.2757 8.98502 25.9671 9.00789 25.6585 9.01932C24.4012 9.01932 23.224 8.52768 22.3439 7.64729C21.4524 6.75547 20.9609 5.5778 20.9609 4.33154C20.9609 4.02283 20.9952 3.71412 21.0524 3.41685C20.3552 3.05098 19.6351 2.7537 18.8922 2.5136C18.4007 3.24535 17.7263 3.82846 16.9034 4.19434C15.7604 4.70885 14.4803 4.74315 13.3031 4.28581C12.3887 3.93136 11.6229 3.31395 11.0857 2.5136C10.3314 2.7537 9.61131 3.05098 8.91411 3.41685C9.08555 4.27437 9.01697 5.16619 8.68551 6.01228C8.23976 7.18994 7.35968 8.11607 6.21672 8.61914C5.61095 8.89355 4.97089 9.03075 4.30797 9.03075H4.27368C3.97651 9.03075 3.67934 8.99645 3.38217 8.93929C3.01642 9.63674 2.71925 10.3685 2.47923 11.1117C4.26225 12.3008 5.0509 14.6218 4.25082 16.7027C3.8965 17.6174 3.2793 18.3834 2.47923 18.9208C2.70782 19.6754 3.01642 20.3958 3.38217 21.0932C5.48522 20.6816 7.67971 21.7564 8.58265 23.803C8.98268 24.6948 9.08555 25.6781 8.90268 26.6157C9.59988 26.9815 10.3314 27.2788 11.0743 27.5189C11.9544 26.2155 13.4288 25.4494 14.9718 25.4494L14.9947 25.438ZM15.0632 21.905C11.2572 21.905 8.15975 18.8065 8.15975 14.9991C8.15975 11.1917 11.2572 8.0932 15.0632 8.0932C18.8693 8.0932 21.9667 11.1917 21.9667 14.9991C21.9667 16.8399 21.2467 18.5778 19.9437 19.8927C18.6407 21.1961 16.9034 21.9164 15.0632 21.9164V21.905ZM15.0632 10.3685C12.5144 10.3685 10.4457 12.438 10.4457 14.9877C10.4457 17.5374 12.5144 19.6068 15.0632 19.6068C16.2976 19.6068 17.452 19.1266 18.3321 18.2462C19.2122 17.3659 19.6808 16.2111 19.6808 14.9762C19.6808 12.4265 17.6006 10.3571 15.0632 10.3571V10.3685Z" fill="#BBBBBB"/>
</svg>
