<svg width="34" height="28" viewBox="0 0 34 28" fill="none" xmlns="http://www.w3.org/2000/svg">
<path d="M0.902815 27.2863C0.785449 27.2863 0.668083 27.2592 0.559745 27.2141C0.451407 27.1689 0.352098 27.1057 0.270844 27.0244C0.0993096 26.8528 0 26.618 0 26.3831C0 26.1483 0.0993096 25.9135 0.270844 25.7419C0.352098 25.6606 0.451407 25.5974 0.559745 25.5522C0.893786 25.4077 1.29102 25.489 1.54381 25.7419C1.71535 25.9135 1.81466 26.1483 1.81466 26.3831C1.81466 26.618 1.71535 26.8438 1.54381 27.0244C1.37228 27.187 1.14657 27.2863 0.902815 27.2863Z" fill="#7285FF"/>
<path d="M7.80938 15.9422C8.15245 16.1047 8.51357 16.2493 8.91984 16.3757C9.60598 16.5473 10.3102 16.6376 11.0956 16.6376C11.1498 16.6376 11.204 16.6376 11.2672 16.6376C12.0255 16.5563 12.7658 16.3847 13.5152 16.1048C14.9868 15.4815 16.1875 14.3435 16.9007 12.8984C17.0632 12.5552 17.2077 12.1939 17.3341 11.7875C17.5237 11.0468 17.6139 10.2882 17.5959 9.44818C17.5146 8.69853 17.3431 7.94888 17.0632 7.19923C16.4403 5.72702 15.3027 4.52576 13.8582 3.81224C13.5152 3.64966 13.154 3.50515 12.7478 3.38773C12.0075 3.19806 11.2491 3.10773 10.4005 3.1258C9.64209 3.20709 8.90178 3.3787 8.19759 3.64063C8.1705 3.64966 8.13439 3.66772 8.10731 3.67675C7.4302 4.01093 6.79823 4.4264 6.22042 4.9051C6.19334 4.93219 6.16626 4.95026 6.13917 4.97736C5.62457 5.52831 5.17316 6.14248 4.76689 6.85601C4.60439 7.19922 4.46896 7.5605 4.34257 7.96694C4.15298 8.70756 4.0627 9.46625 4.08075 10.3153C4.16201 11.0649 4.33354 11.8055 4.61341 12.5552C5.23636 14.0274 6.3739 15.2286 7.81841 15.9422H7.80938ZM6.07597 8.45467C6.16626 8.17468 6.27459 7.89468 6.36487 7.68695C6.6628 7.17213 7.0149 6.6844 7.42117 6.25087C7.86355 5.88056 8.35107 5.56443 8.86567 5.30251C9.41639 5.1038 9.99419 4.96832 10.4998 4.9051C11.0956 4.9051 11.7095 4.96832 12.2422 5.1038C12.5221 5.19412 12.8019 5.30251 13.0547 5.41993C14.102 5.94378 14.9236 6.81988 15.3659 7.85856C15.5736 8.42757 15.718 9.02368 15.7722 9.54753C15.7722 10.1527 15.709 10.7578 15.5736 11.2907C15.4833 11.5707 15.375 11.8507 15.2576 12.1036C14.734 13.1513 13.8582 13.9822 12.829 14.4158C12.2603 14.6235 11.6644 14.768 11.1498 14.8222C10.5449 14.8222 9.94002 14.759 9.40736 14.6235C9.12749 14.5332 8.84762 14.4248 8.59483 14.3074C7.54756 13.7835 6.726 12.9074 6.28362 11.8778C6.07597 11.3088 5.93152 10.7127 5.87735 10.1978C5.87735 9.59269 5.94055 8.99659 6.07597 8.45467Z" fill="#BBBBBB"/>
<path d="M21.6405 26.284C21.6405 22.9692 19.6182 20.2687 16.0973 18.8868C11.2582 16.9901 4.93847 18.0016 2.04044 21.1267C0.677187 22.4905 -0.0631209 24.3872 0.00910425 26.311C0.0271605 26.7085 0.316061 27.0156 0.668159 27.1239C0.821637 27.2414 1.0022 27.3226 1.20985 27.3226L20.5662 27.3497C20.8551 27.3497 21.1079 27.2052 21.2704 26.9884C21.4961 26.8259 21.6496 26.573 21.6496 26.2749L21.6405 26.284ZM3.34049 22.3821C5.76003 19.7719 11.2943 18.941 15.4382 20.5667C16.9549 21.1628 19.4286 22.5808 19.7898 25.5524L1.85987 25.5253C1.98627 24.3511 2.49184 23.2402 3.34952 22.3821H3.34049Z" fill="#BBBBBB"/>
<path d="M33.0972 24.1882C32.6006 24.1882 32.1944 23.7818 32.1944 23.2851C32.1944 20.5574 30.5603 18.9949 29.188 18.1549C26.1004 16.2762 21.2523 16.1679 17.9118 17.902C17.4695 18.1278 16.9278 17.9562 16.693 17.5136C16.4673 17.0711 16.6389 16.5291 17.0813 16.2943C20.9904 14.2621 26.4796 14.3885 30.1269 16.6014C32.6277 18.1188 34 20.4851 34 23.276C34 23.7728 33.5937 24.1792 33.0972 24.1792V24.1882Z" fill="#BBBBBB"/>
<path d="M32.9889 24.2515H23.6267C23.1301 24.2334 22.7239 23.836 22.7239 23.3302C22.7239 22.8244 23.1301 22.427 23.6267 22.427H32.9889C33.4854 22.4451 33.8917 22.8425 33.8917 23.3483C33.8917 23.854 33.4854 24.2515 32.9889 24.2515Z" fill="#BBBBBB"/>
<path d="M23.5093 24.2153C23.112 24.2153 22.7509 23.9534 22.6426 23.556C21.9022 20.8825 19.8799 18.8051 17.2347 18.0013C16.7562 17.8568 16.4854 17.351 16.6388 16.8723C16.7833 16.3936 17.2889 16.1226 17.7674 16.2762C21.0085 17.2697 23.4822 19.8077 24.394 23.0773C24.5294 23.556 24.2405 24.0527 23.762 24.1882C23.6808 24.2063 23.5995 24.2243 23.5183 24.2243L23.5093 24.2153Z" fill="#BBBBBB"/>
<path d="M23.3559 13.5486C23.3559 13.5486 23.3289 13.5486 23.3198 13.5486C22.5524 13.5125 21.7941 13.3951 21.0628 13.1783C20.3225 12.8983 19.7086 12.537 19.1579 12.0583C18.7787 11.7332 18.7426 11.1642 19.0676 10.7848C19.3926 10.4055 19.9614 10.3693 20.3405 10.6945C20.7197 11.0287 21.1621 11.2906 21.6316 11.4622C22.1462 11.6067 22.742 11.7061 23.3469 11.7422C23.9157 11.697 24.4845 11.5887 25.0352 11.4171C25.5769 11.1732 26.0915 10.8571 26.5609 10.4958C26.7234 10.3422 26.9311 10.1255 27.1207 9.89968C27.4547 9.44808 27.7526 8.92423 27.9784 8.36424C28.1228 7.85845 28.2221 7.26235 28.2402 6.64817C28.2311 5.51918 27.7978 4.39018 27.0304 3.51408C26.8408 3.30634 26.6241 3.09861 26.3984 2.90894C25.947 2.57476 25.4234 2.28573 24.8636 2.05993C23.2295 1.49092 21.3517 1.84316 20.0065 2.99925C19.6544 3.3515 19.3204 3.77599 19.0315 4.23663C19.0585 4.72435 18.6794 5.14886 18.1918 5.18499C17.6953 5.22111 17.2619 4.84178 17.2349 4.34502L17.2168 4.08308C17.2078 3.90244 17.2439 3.73084 17.3342 3.5773C17.7314 2.89087 18.2189 2.2496 18.7787 1.68962C20.6565 0.0638609 23.2115 -0.423863 25.4956 0.379983C26.2359 0.669006 26.904 1.04834 27.5089 1.49994C27.8429 1.7709 28.1138 2.04186 28.3756 2.32185C29.4319 3.54117 30.0187 5.08564 30.0368 6.6843C30.0097 7.48814 29.8833 8.2378 29.6666 8.96036C29.3597 9.74614 28.9805 10.4145 28.5291 11.0287C28.2582 11.3629 27.9874 11.6429 27.7075 11.8958C27.0575 12.4015 26.4075 12.7899 25.7213 13.097C25.6942 13.106 25.6581 13.1241 25.631 13.1331C24.9088 13.368 24.1594 13.5034 23.4101 13.5576C23.3921 13.5576 23.374 13.5576 23.3469 13.5576L23.3559 13.5486Z" fill="#BBBBBB"/>
<path d="M19.7537 12.0855C19.6634 12.0855 19.5731 12.0764 19.4829 12.0493C19.0044 11.9048 18.7425 11.399 18.887 10.9203C19.5461 8.78879 18.9502 6.51272 17.3342 4.98632C16.973 4.6431 16.955 4.0741 17.298 3.71282C17.6411 3.35154 18.2099 3.33347 18.571 3.67668C20.6836 5.69081 21.46 8.67137 20.6023 11.4532C20.485 11.8416 20.1239 12.0945 19.7356 12.0945L19.7537 12.0855Z" fill="#BBBBBB"/>
</svg>
