<svg width="30" height="31" viewBox="0 0 30 31" fill="none" xmlns="http://www.w3.org/2000/svg">
<path d="M25.88 30.2501C25.76 30.2501 25.63 30.2301 25.51 30.1901C24.92 29.9901 24.61 29.3401 24.82 28.7601C26.27 24.5901 27.01 20.1701 27.01 15.6301C27.01 11.0901 26.27 6.67012 24.82 2.50012C24.62 1.91012 24.93 1.27012 25.51 1.07012C26.1 0.860119 26.74 1.18012 26.94 1.76012C28.47 6.17012 29.25 10.8401 29.25 15.6301C29.25 20.4201 28.47 25.0901 26.94 29.5001C26.78 29.9601 26.34 30.2501 25.88 30.2501ZM3.75 30.2501C3.31 30.2501 2.88 29.9801 2.71 29.5501C0.91 25.1201 0 20.4401 0 15.6301C0 10.8201 0.91 6.13012 2.7 1.70012C2.93 1.12012 3.59 0.850119 4.16 1.08012C4.74 1.31012 5.01 1.97012 4.78 2.54012C3.1 6.70012 2.25 11.0901 2.25 15.6201C2.25 20.1501 3.1 24.5401 4.78 28.7001C5.01 29.2801 4.74 29.9301 4.16 30.1601C4.02 30.2201 3.88 30.2401 3.74 30.2401L3.75 30.2501ZM17.5 22.9201C17.24 22.9201 16.98 22.8801 16.73 22.7801C16.08 22.5401 15.58 22.0301 15.36 21.3801L14.29 18.1601L12.23 21.2501C11.26 22.7101 9.38 23.2701 7.76 22.5901L7.44 22.4501C6.87 22.2101 6.6 21.5501 6.84 20.9801C7.08 20.4101 7.74 20.1401 8.32 20.3801L8.64 20.5201C9.26 20.7801 9.98 20.5601 10.36 20.0001L13.39 15.4501L11.76 10.5701L9.59 11.9001C9.06 12.2301 8.37 12.0601 8.04 11.5301C7.71 11.0001 7.88 10.3101 8.41 9.98012L10.58 8.65012C11.17 8.29012 11.88 8.21012 12.53 8.45012C13.18 8.69012 13.68 9.20012 13.9 9.85012L14.97 13.0701L17.03 9.98012C18 8.52012 19.88 7.96012 21.5 8.64012L21.82 8.77012C22.39 9.01012 22.66 9.67012 22.42 10.2401C22.18 10.8101 21.52 11.0801 20.95 10.8401L20.63 10.7101C20.01 10.4501 19.28 10.6601 18.91 11.2201L15.88 15.7701L17.51 20.6501L19.68 19.3201C20.21 18.9901 20.9 19.1601 21.23 19.6901C21.56 20.2201 21.39 20.9101 20.86 21.2401L18.69 22.5701C18.33 22.7901 17.92 22.9001 17.51 22.9001L17.5 22.9201Z" fill="#BBBBBB"/>
</svg>