<svg width="30" height="28" viewBox="0 0 30 28" fill="none" xmlns="http://www.w3.org/2000/svg">
<path fill-rule="evenodd" clip-rule="evenodd" d="M26.2488 0H3.75118C1.67244 0 0 1.77 0 3.97V23.81C0 26 1.67244 27.78 3.75118 27.78H26.2488C28.3181 27.78 30 26.01 30 23.81V3.97C30 1.78 28.3276 0 26.2488 0ZM3.75118 25.79C2.71181 25.79 1.88032 24.9 1.88032 23.81V3.97C1.88032 2.87 2.72126 1.99 3.75118 1.99H14.0598V25.79H3.75118ZM28.1197 23.81C28.1197 24.91 27.2787 25.79 26.2488 25.79H15.9402V1.98H26.2488C27.2882 1.98 28.1197 2.87 28.1197 3.96V23.81Z" fill="#BBBBBB"/>
</svg>